<svg xmlns="http://www.w3.org/2000/svg" xmlns:xlink="http://www.w3.org/1999/xlink" width="480" zoomAndPan="magnify" viewBox="0 0 360 67.499998" height="90" preserveAspectRatio="xMidYMid meet" version="1.0"><defs><g/></defs><g fill="#ffffff" fill-opacity="1"><g transform="translate(4.665959, 47.081331)"><g><path d="M 17 0.296875 C 14.257812 0.296875 11.796875 -0.207031 9.609375 -1.21875 C 7.429688 -2.226562 5.695312 -3.71875 4.40625 -5.6875 C 3.125 -7.65625 2.484375 -10.039062 2.484375 -12.84375 C 2.484375 -14.800781 2.828125 -16.921875 3.515625 -19.203125 C 5.015625 -24.078125 7.273438 -27.597656 10.296875 -29.765625 C 13.328125 -31.929688 16.570312 -33.015625 20.03125 -33.015625 C 21.882812 -33.015625 23.523438 -32.738281 24.953125 -32.1875 C 26.390625 -31.632812 27.710938 -30.835938 28.921875 -29.796875 L 30.234375 -30.828125 C 31.109375 -31.503906 31.847656 -31.972656 32.453125 -32.234375 C 33.054688 -32.492188 33.734375 -32.625 34.484375 -32.625 C 35.296875 -32.625 35.945312 -32.441406 36.4375 -32.078125 C 36.925781 -31.722656 37.171875 -31.207031 37.171875 -30.53125 C 37.171875 -30.164062 37.101562 -29.804688 36.96875 -29.453125 L 34.234375 -21.828125 C 33.941406 -20.953125 33.59375 -20.332031 33.1875 -19.96875 C 32.78125 -19.613281 32.171875 -19.4375 31.359375 -19.4375 C 30.515625 -19.4375 29.820312 -19.738281 29.28125 -20.34375 C 28.738281 -20.945312 28.128906 -21.976562 27.453125 -23.4375 C 26.671875 -24.96875 26.035156 -25.976562 25.546875 -26.46875 C 25.054688 -26.957031 24.335938 -27.203125 23.390625 -27.203125 C 22.054688 -27.203125 20.769531 -26.378906 19.53125 -24.734375 C 18.300781 -23.085938 17.179688 -20.625 16.171875 -17.34375 C 15.316406 -14.570312 14.890625 -12.257812 14.890625 -10.40625 C 14.890625 -8.78125 15.195312 -7.566406 15.8125 -6.765625 C 16.4375 -5.960938 17.269531 -5.5625 18.3125 -5.5625 C 19.84375 -5.5625 21.101562 -5.90625 22.09375 -6.59375 C 23.09375 -7.28125 24.113281 -8.207031 25.15625 -9.375 C 25.800781 -10.09375 26.328125 -10.625 26.734375 -10.96875 C 27.148438 -11.3125 27.582031 -11.484375 28.03125 -11.484375 C 28.625 -11.484375 29.242188 -11.1875 29.890625 -10.59375 C 30.546875 -10.007812 30.859375 -9.425781 30.828125 -8.84375 C 30.859375 -8.125 30.273438 -7.015625 29.078125 -5.515625 C 27.890625 -4.015625 26.242188 -2.671875 24.140625 -1.484375 C 22.046875 -0.296875 19.664062 0.296875 17 0.296875 Z M 17 0.296875 "/></g></g></g><g fill="#ffffff" fill-opacity="1"><g transform="translate(38.466891, 47.081331)"><g><path d="M 17.4375 -25.84375 C 21.175781 -25.84375 24.171875 -25.148438 26.421875 -23.765625 C 28.671875 -22.378906 29.796875 -20.269531 29.796875 -17.4375 C 29.796875 -16.363281 29.597656 -15.144531 29.203125 -13.78125 L 27.203125 -7.03125 C 27.171875 -6.90625 27.15625 -6.742188 27.15625 -6.546875 C 27.15625 -6.023438 27.367188 -5.765625 27.796875 -5.765625 C 28.179688 -5.765625 28.507812 -5.9375 28.78125 -6.28125 C 29.0625 -6.625 29.253906 -6.796875 29.359375 -6.796875 C 29.515625 -6.796875 29.648438 -6.679688 29.765625 -6.453125 C 29.878906 -6.222656 29.9375 -5.960938 29.9375 -5.671875 C 29.96875 -4.785156 29.632812 -3.882812 28.9375 -2.96875 C 28.238281 -2.0625 27.300781 -1.316406 26.125 -0.734375 C 24.957031 -0.148438 23.671875 0.140625 22.265625 0.140625 C 20.578125 0.140625 19.128906 -0.164062 17.921875 -0.78125 C 16.722656 -1.394531 15.894531 -2.304688 15.4375 -3.515625 C 14.457031 -2.347656 13.300781 -1.445312 11.96875 -0.8125 C 10.632812 -0.175781 9.203125 0.140625 7.671875 0.140625 C 5.941406 0.140625 4.488281 -0.191406 3.3125 -0.859375 C 2.144531 -1.523438 1.273438 -2.382812 0.703125 -3.4375 C 0.140625 -4.5 -0.140625 -5.617188 -0.140625 -6.796875 C -0.140625 -7.316406 -0.09375 -7.816406 0 -8.296875 C 0.519531 -10.546875 1.648438 -12.238281 3.390625 -13.375 C 5.128906 -14.519531 7.207031 -15.09375 9.625 -15.09375 C 12.320312 -15.09375 14.972656 -14.671875 17.578125 -13.828125 L 18.8125 -17.046875 C 19.226562 -18.410156 19.4375 -19.46875 19.4375 -20.21875 C 19.40625 -21 19.144531 -21.582031 18.65625 -21.96875 C 18.164062 -22.363281 17.414062 -22.5625 16.40625 -22.5625 C 16.601562 -22.039062 16.703125 -21.503906 16.703125 -20.953125 C 16.703125 -19.742188 16.242188 -18.703125 15.328125 -17.828125 C 14.421875 -16.953125 13.117188 -16.515625 11.421875 -16.515625 C 9.828125 -16.515625 8.582031 -16.863281 7.6875 -17.5625 C 6.789062 -18.257812 6.34375 -19.128906 6.34375 -20.171875 C 6.34375 -21.796875 7.253906 -23.144531 9.078125 -24.21875 C 10.898438 -25.300781 13.6875 -25.84375 17.4375 -25.84375 Z M 14.703125 -11.03125 C 13.785156 -11.03125 13.039062 -10.679688 12.46875 -9.984375 C 11.90625 -9.285156 11.625 -8.53125 11.625 -7.71875 C 11.625 -7.195312 11.742188 -6.769531 11.984375 -6.4375 C 12.234375 -6.113281 12.585938 -5.953125 13.046875 -5.953125 C 13.460938 -5.953125 13.921875 -6.125 14.421875 -6.46875 C 14.929688 -6.8125 15.300781 -7.328125 15.53125 -8.015625 L 16.5625 -10.890625 C 16.007812 -10.984375 15.390625 -11.03125 14.703125 -11.03125 Z M 14.703125 -11.03125 "/></g></g></g><g fill="#ffffff" fill-opacity="1"><g transform="translate(70.4117, 47.081331)"><g><path d="M 23.984375 -25.84375 C 25.804688 -25.84375 27.257812 -25.285156 28.34375 -24.171875 C 29.4375 -23.066406 29.984375 -21.703125 29.984375 -20.078125 C 29.984375 -19.453125 29.921875 -18.878906 29.796875 -18.359375 C 29.472656 -17.023438 28.851562 -16 27.9375 -15.28125 C 27.03125 -14.570312 25.941406 -14.21875 24.671875 -14.21875 C 23.429688 -14.21875 22.492188 -14.507812 21.859375 -15.09375 C 21.222656 -15.675781 20.660156 -16.457031 20.171875 -17.4375 C 19.910156 -17.988281 19.664062 -18.394531 19.4375 -18.65625 C 19.207031 -18.914062 18.945312 -19.046875 18.65625 -19.046875 C 18.332031 -19.046875 18.046875 -18.914062 17.796875 -18.65625 C 17.554688 -18.394531 17.335938 -17.941406 17.140625 -17.296875 L 13.390625 -5.078125 C 13.316406 -4.910156 13.28125 -4.664062 13.28125 -4.34375 C 13.28125 -3.925781 13.398438 -3.578125 13.640625 -3.296875 C 13.890625 -3.015625 14.226562 -2.742188 14.65625 -2.484375 C 15.039062 -2.222656 15.296875 -2.007812 15.421875 -1.84375 C 15.554688 -1.6875 15.609375 -1.476562 15.578125 -1.21875 C 15.515625 -0.800781 15.28125 -0.492188 14.875 -0.296875 C 14.46875 -0.0976562 13.773438 0 12.796875 0 L 0.296875 0 C -0.554688 0 -1.164062 -0.132812 -1.53125 -0.40625 C -1.90625 -0.6875 -2.046875 -1.054688 -1.953125 -1.515625 C -1.828125 -1.898438 -1.484375 -2.242188 -0.921875 -2.546875 C -0.441406 -2.804688 -0.0390625 -3.113281 0.28125 -3.46875 C 0.613281 -3.820312 0.894531 -4.390625 1.125 -5.171875 L 5.46875 -19.296875 C 5.53125 -19.453125 5.5625 -19.679688 5.5625 -19.984375 C 5.5625 -20.335938 5.488281 -20.609375 5.34375 -20.796875 C 5.195312 -20.992188 4.960938 -21.242188 4.640625 -21.546875 C 4.316406 -21.804688 4.085938 -22.03125 3.953125 -22.21875 C 3.828125 -22.414062 3.8125 -22.675781 3.90625 -23 C 4.101562 -23.75 5.128906 -24.410156 6.984375 -24.984375 C 8.835938 -25.554688 10.773438 -25.84375 12.796875 -25.84375 C 14.128906 -25.84375 15.234375 -25.539062 16.109375 -24.9375 C 16.992188 -24.332031 17.566406 -23.476562 17.828125 -22.375 C 19.390625 -24.6875 21.441406 -25.84375 23.984375 -25.84375 Z M 23.984375 -25.84375 "/></g></g></g><g fill="#ffffff" fill-opacity="1"><g transform="translate(98.693108, 47.081331)"><g><path d="M 16.5625 -26.078125 C 20.695312 -26.078125 23.691406 -25.414062 25.546875 -24.09375 C 27.398438 -22.78125 28.328125 -21.097656 28.328125 -19.046875 C 28.328125 -18.429688 28.265625 -17.863281 28.140625 -17.34375 C 27.648438 -15.1875 26.285156 -13.644531 24.046875 -12.71875 C 21.816406 -11.789062 19.191406 -11.328125 16.171875 -11.328125 C 14.640625 -11.328125 13.207031 -11.425781 11.875 -11.625 C 11.832031 -9.925781 12.285156 -8.734375 13.234375 -8.046875 C 14.179688 -7.367188 15.5 -7.03125 17.1875 -7.03125 C 17.96875 -7.03125 18.71875 -7.117188 19.4375 -7.296875 C 20.15625 -7.484375 21.066406 -7.753906 22.171875 -8.109375 C 23.085938 -8.429688 23.707031 -8.59375 24.03125 -8.59375 C 24.382812 -8.59375 24.5625 -8.382812 24.5625 -7.96875 C 24.601562 -6.820312 24.179688 -5.617188 23.296875 -4.359375 C 22.421875 -3.109375 21.117188 -2.046875 19.390625 -1.171875 C 17.660156 -0.296875 15.578125 0.140625 13.140625 0.140625 C 9.523438 0.140625 6.5625 -0.769531 4.25 -2.59375 C 1.9375 -4.414062 0.78125 -7.066406 0.78125 -10.546875 C 0.78125 -11.523438 0.910156 -12.664062 1.171875 -13.96875 C 1.984375 -17.976562 3.765625 -21 6.515625 -23.03125 C 9.265625 -25.0625 12.613281 -26.078125 16.5625 -26.078125 Z M 12.21875 -14.5625 C 12.34375 -14.519531 12.519531 -14.5 12.75 -14.5 C 14.113281 -14.5 15.15625 -15.132812 15.875 -16.40625 C 16.59375 -17.675781 16.9375 -19.09375 16.90625 -20.65625 C 16.863281 -21.570312 16.601562 -22.03125 16.125 -22.03125 C 15.757812 -22.03125 15.332031 -21.742188 14.84375 -21.171875 C 14.351562 -20.597656 13.875 -19.742188 13.40625 -18.609375 C 12.9375 -17.472656 12.539062 -16.125 12.21875 -14.5625 Z M 12.21875 -14.5625 "/></g></g></g><g fill="#ffffff" fill-opacity="1"><g transform="translate(126.046465, 47.081331)"><g><path d="M 16.5625 -26.078125 C 20.695312 -26.078125 23.691406 -25.414062 25.546875 -24.09375 C 27.398438 -22.78125 28.328125 -21.097656 28.328125 -19.046875 C 28.328125 -18.429688 28.265625 -17.863281 28.140625 -17.34375 C 27.648438 -15.1875 26.285156 -13.644531 24.046875 -12.71875 C 21.816406 -11.789062 19.191406 -11.328125 16.171875 -11.328125 C 14.640625 -11.328125 13.207031 -11.425781 11.875 -11.625 C 11.832031 -9.925781 12.285156 -8.734375 13.234375 -8.046875 C 14.179688 -7.367188 15.5 -7.03125 17.1875 -7.03125 C 17.96875 -7.03125 18.71875 -7.117188 19.4375 -7.296875 C 20.15625 -7.484375 21.066406 -7.753906 22.171875 -8.109375 C 23.085938 -8.429688 23.707031 -8.59375 24.03125 -8.59375 C 24.382812 -8.59375 24.5625 -8.382812 24.5625 -7.96875 C 24.601562 -6.820312 24.179688 -5.617188 23.296875 -4.359375 C 22.421875 -3.109375 21.117188 -2.046875 19.390625 -1.171875 C 17.660156 -0.296875 15.578125 0.140625 13.140625 0.140625 C 9.523438 0.140625 6.5625 -0.769531 4.25 -2.59375 C 1.9375 -4.414062 0.78125 -7.066406 0.78125 -10.546875 C 0.78125 -11.523438 0.910156 -12.664062 1.171875 -13.96875 C 1.984375 -17.976562 3.765625 -21 6.515625 -23.03125 C 9.265625 -25.0625 12.613281 -26.078125 16.5625 -26.078125 Z M 12.21875 -14.5625 C 12.34375 -14.519531 12.519531 -14.5 12.75 -14.5 C 14.113281 -14.5 15.15625 -15.132812 15.875 -16.40625 C 16.59375 -17.675781 16.9375 -19.09375 16.90625 -20.65625 C 16.863281 -21.570312 16.601562 -22.03125 16.125 -22.03125 C 15.757812 -22.03125 15.332031 -21.742188 14.84375 -21.171875 C 14.351562 -20.597656 13.875 -19.742188 13.40625 -18.609375 C 12.9375 -17.472656 12.539062 -16.125 12.21875 -14.5625 Z M 12.21875 -14.5625 "/></g></g></g><g fill="#ffffff" fill-opacity="1"><g transform="translate(153.399822, 47.081331)"><g><path d="M 23.984375 -25.84375 C 25.804688 -25.84375 27.257812 -25.285156 28.34375 -24.171875 C 29.4375 -23.066406 29.984375 -21.703125 29.984375 -20.078125 C 29.984375 -19.453125 29.921875 -18.878906 29.796875 -18.359375 C 29.472656 -17.023438 28.851562 -16 27.9375 -15.28125 C 27.03125 -14.570312 25.941406 -14.21875 24.671875 -14.21875 C 23.429688 -14.21875 22.492188 -14.507812 21.859375 -15.09375 C 21.222656 -15.675781 20.660156 -16.457031 20.171875 -17.4375 C 19.910156 -17.988281 19.664062 -18.394531 19.4375 -18.65625 C 19.207031 -18.914062 18.945312 -19.046875 18.65625 -19.046875 C 18.332031 -19.046875 18.046875 -18.914062 17.796875 -18.65625 C 17.554688 -18.394531 17.335938 -17.941406 17.140625 -17.296875 L 13.390625 -5.078125 C 13.316406 -4.910156 13.28125 -4.664062 13.28125 -4.34375 C 13.28125 -3.925781 13.398438 -3.578125 13.640625 -3.296875 C 13.890625 -3.015625 14.226562 -2.742188 14.65625 -2.484375 C 15.039062 -2.222656 15.296875 -2.007812 15.421875 -1.84375 C 15.554688 -1.6875 15.609375 -1.476562 15.578125 -1.21875 C 15.515625 -0.800781 15.28125 -0.492188 14.875 -0.296875 C 14.46875 -0.0976562 13.773438 0 12.796875 0 L 0.296875 0 C -0.554688 0 -1.164062 -0.132812 -1.53125 -0.40625 C -1.90625 -0.6875 -2.046875 -1.054688 -1.953125 -1.515625 C -1.828125 -1.898438 -1.484375 -2.242188 -0.921875 -2.546875 C -0.441406 -2.804688 -0.0390625 -3.113281 0.28125 -3.46875 C 0.613281 -3.820312 0.894531 -4.390625 1.125 -5.171875 L 5.46875 -19.296875 C 5.53125 -19.453125 5.5625 -19.679688 5.5625 -19.984375 C 5.5625 -20.335938 5.488281 -20.609375 5.34375 -20.796875 C 5.195312 -20.992188 4.960938 -21.242188 4.640625 -21.546875 C 4.316406 -21.804688 4.085938 -22.03125 3.953125 -22.21875 C 3.828125 -22.414062 3.8125 -22.675781 3.90625 -23 C 4.101562 -23.75 5.128906 -24.410156 6.984375 -24.984375 C 8.835938 -25.554688 10.773438 -25.84375 12.796875 -25.84375 C 14.128906 -25.84375 15.234375 -25.539062 16.109375 -24.9375 C 16.992188 -24.332031 17.566406 -23.476562 17.828125 -22.375 C 19.390625 -24.6875 21.441406 -25.84375 23.984375 -25.84375 Z M 23.984375 -25.84375 "/></g></g></g><g fill="#ffffff" fill-opacity="1"><g transform="translate(181.68123, 47.081331)"><g><path d="M 27.6875 -32.53125 C 29.90625 -32.53125 31.835938 -32.195312 33.484375 -31.53125 C 35.128906 -30.863281 36.378906 -29.953125 37.234375 -28.796875 C 38.097656 -27.640625 38.53125 -26.3125 38.53125 -24.8125 C 38.53125 -23.96875 38.421875 -23.1875 38.203125 -22.46875 C 37.253906 -19.175781 34.53125 -17.09375 30.03125 -16.21875 C 31.601562 -15.757812 32.84375 -15 33.75 -13.9375 C 34.664062 -12.882812 35.125 -11.578125 35.125 -10.015625 C 35.125 -9.296875 34.992188 -8.445312 34.734375 -7.46875 C 34.015625 -4.925781 32.570312 -3.046875 30.40625 -1.828125 C 28.238281 -0.609375 25.171875 0 21.203125 0 L 0.875 0 C 0.195312 0 -0.328125 -0.113281 -0.703125 -0.34375 C -1.078125 -0.570312 -1.265625 -0.878906 -1.265625 -1.265625 C -1.265625 -1.460938 -1.21875 -1.675781 -1.125 -1.90625 C -0.988281 -2.257812 -0.773438 -2.535156 -0.484375 -2.734375 C -0.191406 -2.929688 -0.015625 -3.046875 0.046875 -3.078125 C 0.566406 -3.398438 0.988281 -3.734375 1.3125 -4.078125 C 1.644531 -4.421875 1.925781 -4.984375 2.15625 -5.765625 L 8.109375 -26.8125 C 8.234375 -27.238281 8.296875 -27.644531 8.296875 -28.03125 C 8.296875 -28.394531 8.238281 -28.695312 8.125 -28.9375 C 8.019531 -29.1875 7.867188 -29.472656 7.671875 -29.796875 C 7.378906 -30.222656 7.234375 -30.566406 7.234375 -30.828125 C 7.234375 -30.921875 7.265625 -31.097656 7.328125 -31.359375 C 7.453125 -31.785156 7.734375 -32.085938 8.171875 -32.265625 C 8.617188 -32.441406 9.296875 -32.53125 10.203125 -32.53125 Z M 25.5 -23.59375 C 25.726562 -24.3125 25.84375 -24.976562 25.84375 -25.59375 C 25.84375 -27.289062 24.878906 -28.140625 22.953125 -28.140625 L 20.765625 -28.140625 L 18.171875 -19 L 20.3125 -19 C 21.6875 -19 22.769531 -19.332031 23.5625 -20 C 24.363281 -20.664062 25.007812 -21.863281 25.5 -23.59375 Z M 21.9375 -9.234375 C 22.15625 -10.015625 22.265625 -10.726562 22.265625 -11.375 C 22.265625 -13.132812 21.257812 -14.015625 19.25 -14.015625 L 16.796875 -14.015625 L 14.015625 -4.390625 L 16.515625 -4.390625 C 17.910156 -4.390625 19.03125 -4.738281 19.875 -5.4375 C 20.726562 -6.144531 21.414062 -7.410156 21.9375 -9.234375 Z M 21.9375 -9.234375 "/></g></g></g><g fill="#ffffff" fill-opacity="1"><g transform="translate(218.852486, 47.081331)"><g><path d="M 23.984375 -25.84375 C 25.804688 -25.84375 27.257812 -25.285156 28.34375 -24.171875 C 29.4375 -23.066406 29.984375 -21.703125 29.984375 -20.078125 C 29.984375 -19.453125 29.921875 -18.878906 29.796875 -18.359375 C 29.472656 -17.023438 28.851562 -16 27.9375 -15.28125 C 27.03125 -14.570312 25.941406 -14.21875 24.671875 -14.21875 C 23.429688 -14.21875 22.492188 -14.507812 21.859375 -15.09375 C 21.222656 -15.675781 20.660156 -16.457031 20.171875 -17.4375 C 19.910156 -17.988281 19.664062 -18.394531 19.4375 -18.65625 C 19.207031 -18.914062 18.945312 -19.046875 18.65625 -19.046875 C 18.332031 -19.046875 18.046875 -18.914062 17.796875 -18.65625 C 17.554688 -18.394531 17.335938 -17.941406 17.140625 -17.296875 L 13.390625 -5.078125 C 13.316406 -4.910156 13.28125 -4.664062 13.28125 -4.34375 C 13.28125 -3.925781 13.398438 -3.578125 13.640625 -3.296875 C 13.890625 -3.015625 14.226562 -2.742188 14.65625 -2.484375 C 15.039062 -2.222656 15.296875 -2.007812 15.421875 -1.84375 C 15.554688 -1.6875 15.609375 -1.476562 15.578125 -1.21875 C 15.515625 -0.800781 15.28125 -0.492188 14.875 -0.296875 C 14.46875 -0.0976562 13.773438 0 12.796875 0 L 0.296875 0 C -0.554688 0 -1.164062 -0.132812 -1.53125 -0.40625 C -1.90625 -0.6875 -2.046875 -1.054688 -1.953125 -1.515625 C -1.828125 -1.898438 -1.484375 -2.242188 -0.921875 -2.546875 C -0.441406 -2.804688 -0.0390625 -3.113281 0.28125 -3.46875 C 0.613281 -3.820312 0.894531 -4.390625 1.125 -5.171875 L 5.46875 -19.296875 C 5.53125 -19.453125 5.5625 -19.679688 5.5625 -19.984375 C 5.5625 -20.335938 5.488281 -20.609375 5.34375 -20.796875 C 5.195312 -20.992188 4.960938 -21.242188 4.640625 -21.546875 C 4.316406 -21.804688 4.085938 -22.03125 3.953125 -22.21875 C 3.828125 -22.414062 3.8125 -22.675781 3.90625 -23 C 4.101562 -23.75 5.128906 -24.410156 6.984375 -24.984375 C 8.835938 -25.554688 10.773438 -25.84375 12.796875 -25.84375 C 14.128906 -25.84375 15.234375 -25.539062 16.109375 -24.9375 C 16.992188 -24.332031 17.566406 -23.476562 17.828125 -22.375 C 19.390625 -24.6875 21.441406 -25.84375 23.984375 -25.84375 Z M 23.984375 -25.84375 "/></g></g></g><g fill="#ffffff" fill-opacity="1"><g transform="translate(247.133905, 47.081331)"><g><path d="M 12.84375 -25.84375 C 14.726562 -25.84375 16.109375 -25.484375 16.984375 -24.765625 C 17.867188 -24.046875 18.3125 -23.066406 18.3125 -21.828125 C 18.3125 -21.078125 18.195312 -20.363281 17.96875 -19.6875 L 13.46875 -5.078125 C 13.375 -4.691406 13.328125 -4.347656 13.328125 -4.046875 C 13.328125 -3.628906 13.40625 -3.296875 13.5625 -3.046875 C 13.726562 -2.804688 13.957031 -2.570312 14.25 -2.34375 C 14.476562 -2.113281 14.640625 -1.925781 14.734375 -1.78125 C 14.835938 -1.632812 14.859375 -1.445312 14.796875 -1.21875 C 14.628906 -0.800781 14.300781 -0.492188 13.8125 -0.296875 C 13.320312 -0.0976562 12.570312 0 11.5625 0 L 0.4375 0 C -0.414062 0 -1.035156 -0.132812 -1.421875 -0.40625 C -1.816406 -0.6875 -1.945312 -1.054688 -1.8125 -1.515625 C -1.6875 -1.898438 -1.34375 -2.242188 -0.78125 -2.546875 C -0.300781 -2.804688 0.0976562 -3.113281 0.421875 -3.46875 C 0.753906 -3.820312 1.035156 -4.390625 1.265625 -5.171875 L 5.515625 -19.296875 C 5.609375 -19.585938 5.65625 -19.832031 5.65625 -20.03125 C 5.65625 -20.382812 5.570312 -20.664062 5.40625 -20.875 C 5.25 -21.09375 5.007812 -21.316406 4.6875 -21.546875 C 4.351562 -21.804688 4.117188 -22.03125 3.984375 -22.21875 C 3.859375 -22.414062 3.847656 -22.675781 3.953125 -23 C 4.148438 -23.75 5.175781 -24.410156 7.03125 -24.984375 C 8.882812 -25.554688 10.820312 -25.84375 12.84375 -25.84375 Z M 16.109375 -36.640625 C 17.378906 -36.640625 18.4375 -36.222656 19.28125 -35.390625 C 20.132812 -34.554688 20.5625 -33.535156 20.5625 -32.328125 C 20.5625 -31.484375 20.335938 -30.65625 19.890625 -29.84375 C 19.453125 -29.03125 18.832031 -28.367188 18.03125 -27.859375 C 17.238281 -27.359375 16.351562 -27.109375 15.375 -27.109375 C 14.144531 -27.109375 13.113281 -27.519531 12.28125 -28.34375 C 11.445312 -29.175781 11.015625 -30.210938 10.984375 -31.453125 C 10.984375 -32.265625 11.191406 -33.066406 11.609375 -33.859375 C 12.035156 -34.660156 12.640625 -35.320312 13.421875 -35.84375 C 14.203125 -36.375 15.097656 -36.640625 16.109375 -36.640625 Z M 16.109375 -36.640625 "/></g></g></g><g fill="#ffffff" fill-opacity="1"><g transform="translate(265.011276, 47.081331)"><g><path d="M 27.296875 -7.03125 C 27.234375 -6.769531 27.203125 -6.59375 27.203125 -6.5 C 27.203125 -6.269531 27.265625 -6.085938 27.390625 -5.953125 C 27.523438 -5.828125 27.691406 -5.765625 27.890625 -5.765625 C 28.273438 -5.765625 28.609375 -5.9375 28.890625 -6.28125 C 29.171875 -6.625 29.359375 -6.796875 29.453125 -6.796875 C 29.617188 -6.796875 29.75 -6.679688 29.84375 -6.453125 C 29.9375 -6.222656 29.984375 -5.960938 29.984375 -5.671875 C 30.015625 -4.785156 29.679688 -3.882812 28.984375 -2.96875 C 28.285156 -2.0625 27.347656 -1.316406 26.171875 -0.734375 C 25.003906 -0.148438 23.738281 0.140625 22.375 0.140625 C 20.738281 0.140625 19.316406 -0.164062 18.109375 -0.78125 C 16.910156 -1.394531 16.082031 -2.207031 15.625 -3.21875 C 14.75 -2.082031 13.738281 -1.238281 12.59375 -0.6875 C 11.457031 -0.132812 10.253906 0.140625 8.984375 0.140625 C 7.484375 0.140625 6.085938 -0.226562 4.796875 -0.96875 C 3.515625 -1.71875 2.492188 -2.785156 1.734375 -4.171875 C 0.972656 -5.554688 0.59375 -7.128906 0.59375 -8.890625 C 0.59375 -11.847656 1.148438 -14.640625 2.265625 -17.265625 C 3.390625 -19.890625 4.960938 -22.003906 6.984375 -23.609375 C 9.003906 -25.222656 11.300781 -26.03125 13.875 -26.03125 C 15.269531 -26.03125 16.460938 -25.867188 17.453125 -25.546875 C 18.453125 -25.222656 19.359375 -24.734375 20.171875 -24.078125 L 21.828125 -29.546875 C 21.929688 -29.835938 21.984375 -30.082031 21.984375 -30.28125 C 21.984375 -30.644531 21.890625 -30.9375 21.703125 -31.15625 C 21.523438 -31.382812 21.289062 -31.613281 21 -31.84375 C 20.675781 -32.101562 20.441406 -32.332031 20.296875 -32.53125 C 20.148438 -32.726562 20.125 -32.988281 20.21875 -33.3125 C 20.414062 -34.0625 21.441406 -34.710938 23.296875 -35.265625 C 25.148438 -35.816406 27.085938 -36.09375 29.109375 -36.09375 C 30.992188 -36.09375 32.382812 -35.734375 33.28125 -35.015625 C 34.175781 -34.304688 34.625 -33.332031 34.625 -32.09375 C 34.625 -31.375 34.507812 -30.671875 34.28125 -29.984375 Z M 19.140625 -20.765625 C 18.617188 -21.210938 18.050781 -21.4375 17.4375 -21.4375 C 16.488281 -21.4375 15.554688 -20.734375 14.640625 -19.328125 C 13.734375 -17.929688 13.003906 -16.238281 12.453125 -14.25 C 11.898438 -12.269531 11.640625 -10.484375 11.671875 -8.890625 C 11.671875 -7.097656 12.257812 -6.203125 13.4375 -6.203125 C 13.851562 -6.203125 14.207031 -6.375 14.5 -6.71875 C 14.800781 -7.0625 15.082031 -7.625 15.34375 -8.40625 Z M 19.140625 -20.765625 "/></g></g></g><g fill="#ffffff" fill-opacity="1"><g transform="translate(297.00492, 47.081331)"><g><path d="M 29.59375 -33.796875 C 30.632812 -33.796875 31.648438 -33.578125 32.640625 -33.140625 C 33.640625 -32.703125 34.457031 -32.097656 35.09375 -31.328125 C 35.726562 -30.566406 36.046875 -29.742188 36.046875 -28.859375 C 36.046875 -26.941406 34.742188 -25.984375 32.140625 -25.984375 C 31.390625 -25.984375 30.8125 -26.039062 30.40625 -26.15625 C 30 -26.269531 29.519531 -26.457031 28.96875 -26.71875 C 28.863281 -26.488281 28.8125 -26.160156 28.8125 -25.734375 C 28.8125 -25.210938 28.898438 -24.59375 29.078125 -23.875 C 29.265625 -23.164062 29.488281 -22.5 29.75 -21.875 C 30.425781 -20.875 30.765625 -19.671875 30.765625 -18.265625 C 30.765625 -17.648438 30.6875 -16.898438 30.53125 -16.015625 C 30.132812 -14.328125 29.273438 -12.78125 27.953125 -11.375 C 26.640625 -9.976562 24.945312 -8.878906 22.875 -8.078125 C 20.8125 -7.285156 18.539062 -6.890625 16.0625 -6.890625 C 14.175781 -6.890625 12.40625 -7.019531 10.75 -7.28125 C 10.257812 -6.851562 10.015625 -6.332031 10.015625 -5.71875 C 10.015625 -5.289062 10.207031 -4.9375 10.59375 -4.65625 C 10.988281 -4.382812 11.640625 -4.25 12.546875 -4.25 L 19.875 -4.25 C 22.382812 -4.25 24.335938 -3.816406 25.734375 -2.953125 C 27.140625 -2.085938 27.84375 -0.859375 27.84375 0.734375 C 27.84375 1.316406 27.742188 1.921875 27.546875 2.546875 C 27.160156 3.804688 26.273438 4.984375 24.890625 6.078125 C 23.503906 7.171875 21.554688 8.054688 19.046875 8.734375 C 16.535156 9.421875 13.492188 9.765625 9.921875 9.765625 C 6.722656 9.765625 4.015625 9.488281 1.796875 8.9375 C -0.410156 8.382812 -2.054688 7.625 -3.140625 6.65625 C -4.234375 5.695312 -4.78125 4.632812 -4.78125 3.46875 C -4.78125 3.207031 -4.71875 2.816406 -4.59375 2.296875 C -4.300781 1.347656 -3.640625 0.578125 -2.609375 -0.015625 C -1.585938 -0.617188 0.09375 -1.019531 2.4375 -1.21875 C 1.65625 -1.96875 1.265625 -2.863281 1.265625 -3.90625 C 1.265625 -4.257812 1.316406 -4.632812 1.421875 -5.03125 C 1.941406 -6.726562 3.46875 -7.984375 6 -8.796875 C 3.5625 -10.128906 2.34375 -12.082031 2.34375 -14.65625 C 2.34375 -15.375 2.441406 -16.125 2.640625 -16.90625 C 3.023438 -18.59375 3.882812 -20.128906 5.21875 -21.515625 C 6.5625 -22.898438 8.273438 -24 10.359375 -24.8125 C 12.441406 -25.625 14.71875 -26.03125 17.1875 -26.03125 C 21.0625 -26.03125 24.109375 -25.523438 26.328125 -24.515625 C 25.835938 -25.265625 25.453125 -26.070312 25.171875 -26.9375 C 24.898438 -27.800781 24.765625 -28.59375 24.765625 -29.3125 C 24.765625 -30.539062 25.160156 -31.59375 25.953125 -32.46875 C 26.753906 -33.351562 27.96875 -33.796875 29.59375 -33.796875 Z M 19 -16.453125 C 19.519531 -18.117188 19.78125 -19.390625 19.78125 -20.265625 C 19.78125 -21.378906 19.304688 -21.9375 18.359375 -21.9375 C 17.546875 -21.9375 16.835938 -21.535156 16.234375 -20.734375 C 15.640625 -19.929688 15.03125 -18.503906 14.40625 -16.453125 C 13.882812 -14.765625 13.625 -13.484375 13.625 -12.609375 C 13.625 -11.523438 14.082031 -10.984375 15 -10.984375 C 15.8125 -10.984375 16.523438 -11.390625 17.140625 -12.203125 C 17.765625 -13.023438 18.382812 -14.441406 19 -16.453125 Z M 9.28125 0.6875 C 8.363281 0.6875 7.535156 0.632812 6.796875 0.53125 C 6.398438 1.019531 6.203125 1.671875 6.203125 2.484375 C 6.234375 3.304688 6.566406 3.894531 7.203125 4.25 C 7.835938 4.601562 8.820312 4.78125 10.15625 4.78125 C 11.789062 4.78125 13.117188 4.535156 14.140625 4.046875 C 15.160156 3.566406 15.671875 2.867188 15.671875 1.953125 C 15.671875 1.566406 15.523438 1.257812 15.234375 1.03125 C 14.941406 0.800781 14.519531 0.6875 13.96875 0.6875 Z M 9.28125 0.6875 "/></g></g></g><g fill="#ffffff" fill-opacity="1"><g transform="translate(328.021654, 47.081331)"><g><path d="M 16.5625 -26.078125 C 20.695312 -26.078125 23.691406 -25.414062 25.546875 -24.09375 C 27.398438 -22.78125 28.328125 -21.097656 28.328125 -19.046875 C 28.328125 -18.429688 28.265625 -17.863281 28.140625 -17.34375 C 27.648438 -15.1875 26.285156 -13.644531 24.046875 -12.71875 C 21.816406 -11.789062 19.191406 -11.328125 16.171875 -11.328125 C 14.640625 -11.328125 13.207031 -11.425781 11.875 -11.625 C 11.832031 -9.925781 12.285156 -8.734375 13.234375 -8.046875 C 14.179688 -7.367188 15.5 -7.03125 17.1875 -7.03125 C 17.96875 -7.03125 18.71875 -7.117188 19.4375 -7.296875 C 20.15625 -7.484375 21.066406 -7.753906 22.171875 -8.109375 C 23.085938 -8.429688 23.707031 -8.59375 24.03125 -8.59375 C 24.382812 -8.59375 24.5625 -8.382812 24.5625 -7.96875 C 24.601562 -6.820312 24.179688 -5.617188 23.296875 -4.359375 C 22.421875 -3.109375 21.117188 -2.046875 19.390625 -1.171875 C 17.660156 -0.296875 15.578125 0.140625 13.140625 0.140625 C 9.523438 0.140625 6.5625 -0.769531 4.25 -2.59375 C 1.9375 -4.414062 0.78125 -7.066406 0.78125 -10.546875 C 0.78125 -11.523438 0.910156 -12.664062 1.171875 -13.96875 C 1.984375 -17.976562 3.765625 -21 6.515625 -23.03125 C 9.265625 -25.0625 12.613281 -26.078125 16.5625 -26.078125 Z M 12.21875 -14.5625 C 12.34375 -14.519531 12.519531 -14.5 12.75 -14.5 C 14.113281 -14.5 15.15625 -15.132812 15.875 -16.40625 C 16.59375 -17.675781 16.9375 -19.09375 16.90625 -20.65625 C 16.863281 -21.570312 16.601562 -22.03125 16.125 -22.03125 C 15.757812 -22.03125 15.332031 -21.742188 14.84375 -21.171875 C 14.351562 -20.597656 13.875 -19.742188 13.40625 -18.609375 C 12.9375 -17.472656 12.539062 -16.125 12.21875 -14.5625 Z M 12.21875 -14.5625 "/></g></g></g></svg>